<svg width="657.9px" height="122px" xmlns="http://www.w3.org/2000/svg" viewBox="-78.94687499999998 14 657.89375 122" style="background: rgba(0, 0, 0, 0)" preserveAspectRatio="xMidYMid"><defs><linearGradient id="editing-gradient-gradient" x1="0" x2="1" y1="0.5" y2="0.5" gradientUnits="objectBoundingBox"><stop offset="0" stop-color="#309cce"></stop><stop offset="1" stop-color="#e16bb2"></stop></linearGradient></defs><g><g transform="matrix(1.2,0,0,1.4,-30.2,162.6)"><path d="M 3.2 -47.1 L -10.8 -47.1 L -2.7 -89.4 L 11.4 -89.4 L 3.2 -47.1 Z M 58.9 -45.8 L 58.9 -45.8 L 58.9 -45.8 Q 51.2 -45.8 51.2 -51.9 L 51.2 -51.9 L 51.2 -51.9 Q 51.2 -54.5 52.3 -59.6 L 52.3 -59.6 L 52.3 -59.6 Q 53.4 -64.7 53.8 -66.7 L 53.8 -66.7 L 53.8 -66.7 Q 54.7 -71.4 54.7 -72.8 L 54.7 -72.8 L 54.7 -72.8 Q 54.7 -76.1 52.2 -76.1 L 52.2 -76.1 L 52.2 -76.1 Q 50.6 -76.1 49.1 -73.9 L 49.1 -73.9 L 49.1 -73.9 Q 47.6 -71.7 46.9 -67.3 L 46.9 -67.3 L 42.9 -47.1 L 30.4 -45.8 L 33.9 -63.2 L 33.9 -63.2 Q 34.4 -66.1 35 -69.4 L 35 -69.4 L 35 -69.4 Q 35.5 -72.7 35.5 -73.2 L 35.5 -73.2 L 35.5 -73.2 Q 35.5 -76.1 33.3 -76.1 L 33.3 -76.1 L 33.3 -76.1 Q 31.8 -76.1 30.2 -73.9 L 30.2 -73.9 L 30.2 -73.9 Q 28.6 -71.8 27.7 -67.3 L 27.7 -67.3 L 23.8 -47.1 L 11.2 -45.8 L 17.9 -79.8 L 28.4 -81 L 27.3 -74.6 L 27.3 -74.6 Q 28.9 -78 32 -79.5 L 32 -79.5 L 32 -79.5 Q 35.1 -81 39.9 -81 L 39.9 -81 L 39.9 -81 Q 42.6 -81 44.4 -79.7 L 44.4 -79.7 L 44.4 -79.7 Q 46.2 -78.3 46.8 -76.2 L 46.8 -76.2 L 46.8 -76.2 Q 47.9 -78.4 50.7 -79.7 L 50.7 -79.7 L 50.7 -79.7 Q 53.5 -81 56.9 -81 L 56.9 -81 L 56.9 -81 Q 60.3 -81 62 -80.3 L 62 -80.3 L 62 -80.3 Q 63.7 -79.6 64.7 -78.3 L 64.7 -78.3 L 64.7 -78.3 Q 66.4 -76.1 66.4 -72 L 66.4 -72 L 66.4 -72 Q 66.4 -68 64.7 -59.6 L 64.7 -59.6 L 64.7 -59.6 Q 63.8 -55.5 63.8 -54 L 63.8 -54 L 63.8 -54 Q 63.8 -52.5 64.7 -51.6 L 64.7 -51.6 L 64.7 -51.6 Q 65.6 -50.7 66.8 -50.6 L 66.8 -50.6 L 66.8 -50.6 Q 66.2 -48.4 64 -47.1 L 64 -47.1 L 64 -47.1 Q 61.8 -45.8 58.9 -45.8 Z M 74.5 -49 L 74.5 -49 L 74.5 -49 Q 73 -50.7 72.4 -53.3 L 72.4 -53.3 L 72.4 -53.3 Q 71.7 -55.9 71.7 -60.2 L 71.7 -60.2 L 71.7 -60.2 Q 71.7 -64.5 73.2 -68.4 L 73.2 -68.4 L 73.2 -68.4 Q 74.6 -72.3 77.3 -75.1 L 77.3 -75.1 L 77.3 -75.1 Q 82.8 -81 91.9 -81 L 91.9 -81 L 91.9 -81 Q 95.2 -81 97.6 -79.9 L 97.6 -79.9 L 108.5 -81 L 103.8 -56.1 L 103.8 -56.1 Q 103.6 -55.3 103.6 -53.9 L 103.6 -53.9 L 103.6 -53.9 Q 103.6 -52.5 104.4 -51.6 L 104.4 -51.6 L 104.4 -51.6 Q 105.3 -50.7 106.6 -50.6 L 106.6 -50.6 L 106.6 -50.6 Q 105.9 -48.4 103.6 -47.1 L 103.6 -47.1 L 103.6 -47.1 Q 101.3 -45.8 98.6 -45.8 L 98.6 -45.8 L 98.6 -45.8 Q 96 -45.8 94.3 -46.8 L 94.3 -46.8 L 94.3 -46.8 Q 92.5 -47.8 92 -49.5 L 92 -49.5 L 92 -49.5 Q 91 -47.9 88.8 -46.9 L 88.8 -46.9 L 88.8 -46.9 Q 86.6 -45.8 83.7 -45.8 L 83.7 -45.8 L 83.7 -45.8 Q 80.8 -45.8 78.4 -46.6 L 78.4 -46.6 L 78.4 -46.6 Q 76 -47.4 74.5 -49 Z M 88 -75 L 88 -75 L 88 -75 Q 87.3 -73.9 86.7 -71.9 L 86.7 -71.9 L 86.7 -71.9 Q 86 -70 85 -64.7 L 85 -64.7 L 85 -64.7 Q 83.9 -59.5 83.9 -55.8 L 83.9 -55.8 L 83.9 -55.8 Q 83.9 -52.1 84.5 -51 L 84.5 -51 L 84.5 -51 Q 85.1 -49.9 86.1 -49.9 L 86.1 -49.9 L 86.1 -49.9 Q 88.1 -49.9 89.6 -51.9 L 89.6 -51.9 L 89.6 -51.9 Q 91.2 -53.8 91.7 -57.3 L 91.7 -57.3 L 95.1 -76 L 95.1 -76 Q 93.8 -77.2 92.2 -77.2 L 92.2 -77.2 L 92.2 -77.2 Q 90.6 -77.2 89.7 -76.7 L 89.7 -76.7 L 89.7 -76.7 Q 88.8 -76.2 88 -75 Z M 116.2 -73.9 L 116.2 -73.9 L 116.2 -73.9 Q 118.4 -76.9 121.7 -79 L 121.7 -79 L 121.7 -79 Q 125 -81 129 -81 L 129 -81 L 129 -81 Q 133.1 -81 135 -79.8 L 135 -79.8 L 147.5 -81 L 143.2 -56.5 L 143.2 -56.5 Q 140.9 -43.9 136.2 -39 L 136.2 -39 L 136.2 -39 Q 131.7 -34.3 122.8 -34.3 L 122.8 -34.3 L 122.8 -34.3 Q 116.1 -34.3 112.3 -36.4 L 112.3 -36.4 L 112.3 -36.4 Q 108.4 -38.5 108.4 -42.1 L 108.4 -42.1 L 108.4 -42.1 Q 108.4 -44.7 110.4 -46.2 L 110.4 -46.2 L 110.4 -46.2 Q 112.4 -47.7 115.5 -47.7 L 115.5 -47.7 L 115.5 -47.7 Q 118.2 -47.7 120.2 -46.5 L 120.2 -46.5 L 120.2 -46.5 Q 121.4 -45.8 122 -44.9 L 122 -44.9 L 122 -44.9 Q 120.5 -43.7 120.5 -41.5 L 120.5 -41.5 L 120.5 -41.5 Q 120.5 -38.8 123.1 -38.8 L 123.1 -38.8 L 123.1 -38.8 Q 127.4 -38.8 129.8 -48.9 L 129.8 -48.9 L 129.8 -48.9 Q 130.5 -51.7 131.1 -54.4 L 131.1 -54.4 L 131.1 -54.4 Q 128.2 -50.9 121.7 -50.9 L 121.7 -50.9 L 121.7 -50.9 Q 117.1 -50.9 114.5 -53.1 L 114.5 -53.1 L 114.5 -53.1 Q 111.9 -55.2 111.9 -60.4 L 111.9 -60.4 L 111.9 -60.4 Q 111.9 -63.6 113 -67.2 L 113 -67.2 L 113 -67.2 Q 114.1 -70.8 116.2 -73.9 Z M 124.6 -60.2 L 124.6 -60.2 L 124.6 -60.2 Q 124.6 -55.8 126.8 -55.8 L 126.8 -55.8 L 126.8 -55.8 Q 128.3 -55.8 129.8 -57.5 L 129.8 -57.5 L 129.8 -57.5 Q 131 -58.8 131.4 -60.8 L 131.4 -60.8 L 134.7 -77.3 L 134.7 -77.3 Q 134.4 -77.3 134 -77.5 L 134 -77.5 L 134 -77.5 Q 133.4 -77.7 132.6 -77.7 L 132.6 -77.7 L 132.6 -77.7 Q 128.7 -77.7 126.4 -71.3 L 126.4 -71.3 L 126.4 -71.3 Q 124.6 -66.3 124.6 -60.2 Z M 176 -57.9 L 176 -57.9 L 176 -57.9 Q 177.6 -56.8 177.6 -54.4 L 177.6 -54.4 L 177.6 -54.4 Q 177.6 -52 176.3 -50.5 L 176.3 -50.5 L 176.3 -50.5 Q 175.1 -49 173.1 -47.9 L 173.1 -47.9 L 173.1 -47.9 Q 169 -45.8 164.6 -45.8 L 164.6 -45.8 L 164.6 -45.8 Q 160.2 -45.8 157.6 -46.8 L 157.6 -46.8 L 157.6 -46.8 Q 155 -47.8 153.3 -49.5 L 153.3 -49.5 L 153.3 -49.5 Q 149.9 -52.9 149.9 -59.1 L 149.9 -59.1 L 149.9 -59.1 Q 149.9 -68.8 155.2 -74.7 L 155.2 -74.7 L 155.2 -74.7 Q 160.8 -81 170.6 -81 L 170.6 -81 L 170.6 -81 Q 176.7 -81 179.7 -78.5 L 179.7 -78.5 L 179.7 -78.5 Q 181.9 -76.6 181.9 -73.4 L 181.9 -73.4 L 181.9 -73.4 Q 181.9 -62.2 162.4 -62.2 L 162.4 -62.2 L 162.4 -62.2 Q 162.2 -60.5 162.2 -59.1 L 162.2 -59.1 L 162.2 -59.1 Q 162.2 -56.1 163.5 -55 L 163.5 -55 L 163.5 -55 Q 164.8 -53.9 167.2 -53.9 L 167.2 -53.9 L 167.2 -53.9 Q 169.7 -53.9 172.3 -55 L 172.3 -55 L 172.3 -55 Q 174.9 -56.1 176 -57.9 Z M 162.9 -64.9 L 162.9 -64.9 L 162.9 -64.9 Q 167.4 -64.9 170.1 -67.7 L 170.1 -67.7 L 170.1 -67.7 Q 172.7 -70.4 172.7 -74.7 L 172.7 -74.7 L 172.7 -74.7 Q 172.7 -76.2 172.1 -77 L 172.1 -77 L 172.1 -77 Q 171.6 -77.8 170.5 -77.8 L 170.5 -77.8 L 170.5 -77.8 Q 169.4 -77.8 168.5 -77.4 L 168.5 -77.4 L 168.5 -77.4 Q 167.6 -76.9 166.6 -75.5 L 166.6 -75.5 L 166.6 -75.5 Q 164.2 -72.3 162.9 -64.9 Z M 203.2 -69.6 L 203.2 -69.6 L 203.2 -69.6 Q 204.1 -71.9 204.1 -74 L 204.1 -74 L 204.1 -74 Q 204.1 -77.8 201 -77.8 L 201 -77.8 L 201 -77.8 Q 199.4 -77.8 198.1 -76.3 L 198.1 -76.3 L 198.1 -76.3 Q 196.8 -74.9 196.8 -73.1 L 196.8 -73.1 L 196.8 -73.1 Q 196.8 -71.8 197.8 -70.8 L 197.8 -70.8 L 197.8 -70.8 Q 199.3 -69.4 203.1 -67.1 L 203.1 -67.1 L 203.1 -67.1 Q 206.9 -64.8 208.3 -62.9 L 208.3 -62.9 L 208.3 -62.9 Q 209.7 -61 209.7 -58.4 L 209.7 -58.4 L 209.7 -58.4 Q 209.7 -55.8 208.5 -53.5 L 208.5 -53.5 L 208.5 -53.5 Q 207.2 -51.1 205 -49.4 L 205 -49.4 L 205 -49.4 Q 200.2 -45.8 192.5 -45.8 L 192.5 -45.8 L 192.5 -45.8 Q 188.4 -45.8 185.2 -48 L 185.2 -48 L 185.2 -48 Q 182 -50.1 182 -52.6 L 182 -52.6 L 182 -52.6 Q 182 -55.1 183.8 -56.6 L 183.8 -56.6 L 183.8 -56.6 Q 185.6 -58.1 188.3 -58.1 L 188.3 -58.1 L 188.3 -58.1 Q 191 -58.1 192.7 -57 L 192.7 -57 L 192.7 -57 Q 191.8 -54.9 191.8 -53.5 L 191.8 -53.5 L 191.8 -53.5 Q 191.8 -49.3 195.4 -49.3 L 195.4 -49.3 L 195.4 -49.3 Q 196.9 -49.3 198 -50.3 L 198 -50.3 L 198 -50.3 Q 199 -51.2 199 -52.9 L 199 -52.9 L 199 -52.9 Q 199 -56.1 193.5 -59.6 L 193.5 -59.6 L 193.5 -59.6 Q 189 -62.5 188 -63.7 L 188 -63.7 L 188 -63.7 Q 186.3 -65.7 186.3 -68.3 L 186.3 -68.3 L 186.3 -68.3 Q 186.3 -70.9 187.5 -73.3 L 187.5 -73.3 L 187.5 -73.3 Q 188.7 -75.7 190.9 -77.5 L 190.9 -77.5 L 190.9 -77.5 Q 195.6 -81 203.7 -81 L 203.7 -81 L 203.7 -81 Q 207.9 -81 210.4 -79.4 L 210.4 -79.4 L 210.4 -79.4 Q 212.8 -77.7 212.8 -74.9 L 212.8 -74.9 L 212.8 -74.9 Q 212.8 -72.1 211.1 -70.5 L 211.1 -70.5 L 211.1 -70.5 Q 209.4 -68.9 206.4 -68.9 L 206.4 -68.9 L 206.4 -68.9 Q 204.2 -68.9 203.2 -69.6 Z M 254.3 -67.7 L 267.2 -68.9 L 267.2 -68.9 Q 262.6 -58.8 262.6 -47.1 L 262.6 -47.1 L 262.6 -47.1 Q 260.9 -45.8 258.4 -45.8 L 258.4 -45.8 L 258.4 -45.8 Q 255.8 -45.8 254.2 -47 L 254.2 -47 L 254.2 -47 Q 252.6 -48.2 252.3 -49.4 L 252.3 -49.4 L 252.3 -49.4 Q 250.7 -47.8 248.1 -46.8 L 248.1 -46.8 L 248.1 -46.8 Q 245.5 -45.8 242.8 -45.8 L 242.8 -45.8 L 242.8 -45.8 Q 240 -45.8 237.6 -46.7 L 237.6 -46.7 L 237.6 -46.7 Q 235.2 -47.6 233.4 -49.6 L 233.4 -49.6 L 233.4 -49.6 Q 229.3 -54 229.3 -62.2 L 229.3 -62.2 L 229.3 -62.2 Q 229.3 -75 236.1 -82.7 L 236.1 -82.7 L 236.1 -82.7 Q 243.2 -90.6 255.6 -90.6 L 255.6 -90.6 L 255.6 -90.6 Q 264.3 -90.6 267.3 -86.2 L 267.3 -86.2 L 267.3 -86.2 Q 268.3 -84.7 268.3 -83.1 L 268.3 -83.1 L 268.3 -83.1 Q 268.3 -81.4 267.6 -79.9 L 267.6 -79.9 L 267.6 -79.9 Q 266.8 -78.5 265.7 -77.3 L 265.7 -77.3 L 265.7 -77.3 Q 262.9 -74.8 259.5 -74.8 L 259.5 -74.8 L 259.5 -74.8 Q 258.2 -74.8 256.9 -75.2 L 256.9 -75.2 L 256.9 -75.2 Q 257.2 -77.1 257.2 -79.4 L 257.2 -79.4 L 257.2 -79.4 Q 257.2 -81.6 257 -82.6 L 257 -82.6 L 257 -82.6 Q 256.8 -83.7 256.5 -84.5 L 256.5 -84.5 L 256.5 -84.5 Q 255.6 -86.2 253.8 -86.2 L 253.8 -86.2 L 253.8 -86.2 Q 252 -86.2 250 -84.3 L 250 -84.3 L 250 -84.3 Q 248 -82.3 246.4 -79.1 L 246.4 -79.1 L 246.4 -79.1 Q 242.8 -71.9 242.8 -63.3 L 242.8 -63.3 L 242.8 -63.3 Q 242.8 -59.3 244.4 -56.5 L 244.4 -56.5 L 244.4 -56.5 Q 246 -53.5 249 -53.5 L 249 -53.5 L 249 -53.5 Q 250 -53.5 250.9 -54 L 250.9 -54 L 250.9 -54 Q 251.9 -54.5 252.2 -54.9 L 252.2 -54.9 L 254.3 -67.7 Z M 273.1 -49 L 273.1 -49 L 273.1 -49 Q 271.6 -50.7 271 -53.3 L 271 -53.3 L 271 -53.3 Q 270.3 -55.9 270.3 -60.2 L 270.3 -60.2 L 270.3 -60.2 Q 270.3 -64.5 271.8 -68.4 L 271.8 -68.4 L 271.8 -68.4 Q 273.2 -72.3 275.9 -75.1 L 275.9 -75.1 L 275.9 -75.1 Q 281.4 -81 290.5 -81 L 290.5 -81 L 290.5 -81 Q 293.8 -81 296.1 -79.9 L 296.1 -79.9 L 307.1 -81 L 302.4 -56.1 L 302.4 -56.1 Q 302.2 -55.3 302.2 -53.9 L 302.2 -53.9 L 302.2 -53.9 Q 302.2 -52.5 303 -51.6 L 303 -51.6 L 303 -51.6 Q 303.9 -50.7 305.2 -50.6 L 305.2 -50.6 L 305.2 -50.6 Q 304.5 -48.4 302.2 -47.1 L 302.2 -47.1 L 302.2 -47.1 Q 299.9 -45.8 297.2 -45.8 L 297.2 -45.8 L 297.2 -45.8 Q 294.6 -45.8 292.8 -46.8 L 292.8 -46.8 L 292.8 -46.8 Q 291.1 -47.8 290.6 -49.5 L 290.6 -49.5 L 290.6 -49.5 Q 289.6 -47.9 287.4 -46.9 L 287.4 -46.9 L 287.4 -46.9 Q 285.2 -45.8 282.3 -45.8 L 282.3 -45.8 L 282.3 -45.8 Q 279.4 -45.8 277 -46.6 L 277 -46.6 L 277 -46.6 Q 274.6 -47.4 273.1 -49 Z M 286.6 -75 L 286.6 -75 L 286.6 -75 Q 285.9 -73.9 285.3 -71.9 L 285.3 -71.9 L 285.3 -71.9 Q 284.6 -70 283.6 -64.7 L 283.6 -64.7 L 283.6 -64.7 Q 282.5 -59.5 282.5 -55.8 L 282.5 -55.8 L 282.5 -55.8 Q 282.5 -52.1 283.1 -51 L 283.1 -51 L 283.1 -51 Q 283.7 -49.9 284.7 -49.9 L 284.7 -49.9 L 284.7 -49.9 Q 286.7 -49.9 288.2 -51.9 L 288.2 -51.9 L 288.2 -51.9 Q 289.7 -53.8 290.3 -57.3 L 290.3 -57.3 L 293.7 -76 L 293.7 -76 Q 292.4 -77.2 290.8 -77.2 L 290.8 -77.2 L 290.8 -77.2 Q 289.2 -77.2 288.3 -76.7 L 288.3 -76.7 L 288.3 -76.7 Q 287.4 -76.2 286.6 -75 Z M 325.8 -50.6 L 325.8 -50.6 L 325.8 -50.6 Q 323.9 -45.8 317.5 -45.8 L 317.5 -45.8 L 317.5 -45.8 Q 314.3 -45.8 312.3 -48.1 L 312.3 -48.1 L 312.3 -48.1 Q 310.6 -49.9 310.6 -52 L 310.6 -52 L 310.6 -52 Q 310.6 -56.8 312.8 -67.3 L 312.8 -67.3 L 317.5 -91.9 L 330.5 -93.2 L 324.3 -60.8 L 324.3 -60.8 Q 323.2 -56.1 323.2 -54.4 L 323.2 -54.4 L 323.2 -54.4 Q 323.2 -50.8 325.8 -50.6 Z M 346.6 -50.6 L 346.6 -50.6 L 346.6 -50.6 Q 344.6 -45.8 338.3 -45.8 L 338.3 -45.8 L 338.3 -45.8 Q 335.1 -45.8 333 -48.1 L 333 -48.1 L 333 -48.1 Q 331.3 -49.9 331.3 -52 L 331.3 -52 L 331.3 -52 Q 331.3 -56.8 333.6 -67.3 L 333.6 -67.3 L 338.3 -91.9 L 351.2 -93.2 L 345 -60.8 L 345 -60.8 Q 344 -56.1 344 -54.4 L 344 -54.4 L 344 -54.4 Q 344 -50.8 346.6 -50.6 Z M 377.9 -57.9 L 377.9 -57.9 L 377.9 -57.9 Q 379.5 -56.8 379.5 -54.4 L 379.5 -54.4 L 379.5 -54.4 Q 379.5 -52 378.3 -50.5 L 378.3 -50.5 L 378.3 -50.5 Q 377.1 -49 375.1 -47.9 L 375.1 -47.9 L 375.1 -47.9 Q 371 -45.8 366.6 -45.8 L 366.6 -45.8 L 366.6 -45.8 Q 362.2 -45.8 359.6 -46.8 L 359.6 -46.8 L 359.6 -46.8 Q 357 -47.8 355.3 -49.5 L 355.3 -49.5 L 355.3 -49.5 Q 351.9 -52.9 351.9 -59.1 L 351.9 -59.1 L 351.9 -59.1 Q 351.9 -68.8 357.1 -74.7 L 357.1 -74.7 L 357.1 -74.7 Q 362.8 -81 372.6 -81 L 372.6 -81 L 372.6 -81 Q 378.6 -81 381.6 -78.5 L 381.6 -78.5 L 381.6 -78.5 Q 383.9 -76.6 383.9 -73.4 L 383.9 -73.4 L 383.9 -73.4 Q 383.9 -62.2 364.4 -62.2 L 364.4 -62.2 L 364.4 -62.2 Q 364.2 -60.5 364.2 -59.1 L 364.2 -59.1 L 364.2 -59.1 Q 364.2 -56.1 365.5 -55 L 365.5 -55 L 365.5 -55 Q 366.8 -53.9 369.2 -53.9 L 369.2 -53.9 L 369.2 -53.9 Q 371.7 -53.9 374.3 -55 L 374.3 -55 L 374.3 -55 Q 376.8 -56.1 377.9 -57.9 Z M 364.9 -64.9 L 364.9 -64.9 L 364.9 -64.9 Q 369.4 -64.9 372 -67.7 L 372 -67.7 L 372 -67.7 Q 374.7 -70.4 374.7 -74.7 L 374.7 -74.7 L 374.7 -74.7 Q 374.7 -76.2 374.1 -77 L 374.1 -77 L 374.1 -77 Q 373.6 -77.8 372.5 -77.8 L 372.5 -77.8 L 372.5 -77.8 Q 371.4 -77.8 370.5 -77.4 L 370.5 -77.4 L 370.5 -77.4 Q 369.6 -76.9 368.6 -75.5 L 368.6 -75.5 L 368.6 -75.5 Q 366.2 -72.3 364.9 -64.9 Z M 406.1 -65.1 L 406.1 -65.1 L 406.1 -65.1 Q 408.4 -69.2 408.4 -73.4 L 408.4 -73.4 L 408.4 -73.4 Q 408.4 -76.1 406.4 -76.1 L 406.4 -76.1 L 406.4 -76.1 Q 404.9 -76.1 403.3 -73.5 L 403.3 -73.5 L 403.3 -73.5 Q 401.6 -70.9 401.1 -67.5 L 401.1 -67.5 L 397.8 -47.1 L 384.5 -45.8 L 391.1 -79.8 L 401.6 -81 L 400.5 -74.6 L 400.5 -74.6 Q 403.6 -81 410.6 -81 L 410.6 -81 L 410.6 -81 Q 414.4 -81 416.4 -79.1 L 416.4 -79.1 L 416.4 -79.1 Q 418.4 -77.2 418.4 -73.3 L 418.4 -73.3 L 418.4 -73.3 Q 418.4 -69.3 415.8 -66.8 L 415.8 -66.8 L 415.8 -66.8 Q 413.2 -64.3 408.8 -64.3 L 408.8 -64.3 L 408.8 -64.3 Q 406.9 -64.3 406.1 -65.1 Z M 439.8 -54.3 L 439.8 -54.3 L 439.8 -54.3 Q 436.4 -50.9 430.4 -50.9 L 430.4 -50.9 L 430.4 -50.9 Q 422.7 -50.9 421.1 -56.5 L 421.1 -56.5 L 421.1 -56.5 Q 420.6 -58.1 420.6 -60 L 420.6 -60 L 420.6 -60 Q 420.6 -61.8 421 -63.8 L 421 -63.8 L 424 -79.8 L 437 -81 L 433.5 -62.4 L 433.5 -62.4 Q 433.4 -61.6 433.2 -60.7 L 433.2 -60.7 L 433.2 -60.7 Q 433 -59.8 433 -58.9 L 433 -58.9 L 433 -58.9 Q 433 -57.9 433.3 -57.3 L 433.3 -57.3 L 433.3 -57.3 Q 433.6 -56.7 434.1 -56.3 L 434.1 -56.3 L 434.1 -56.3 Q 434.8 -55.8 436.2 -55.8 L 436.2 -55.8 L 436.2 -55.8 Q 437.6 -55.8 438.8 -57.5 L 438.8 -57.5 L 438.8 -57.5 Q 440 -59.1 440.5 -62 L 440.5 -62 L 444 -79.8 L 456.7 -81 L 451.9 -55.9 L 451.9 -55.9 Q 449.5 -43.6 444.6 -38.7 L 444.6 -38.7 L 444.6 -38.7 Q 442.1 -36.2 438.9 -35.2 L 438.9 -35.2 L 438.9 -35.2 Q 435.7 -34.3 431.5 -34.3 L 431.5 -34.3 L 431.5 -34.3 Q 424.8 -34.3 420.9 -36.4 L 420.9 -36.4 L 420.9 -36.4 Q 417.1 -38.5 417.1 -42 L 417.1 -42 L 417.1 -42 Q 417.1 -44.6 419.1 -46.1 L 419.1 -46.1 L 419.1 -46.1 Q 421.1 -47.6 424.1 -47.6 L 424.1 -47.6 L 424.1 -47.6 Q 426.8 -47.6 428.9 -46.5 L 428.9 -46.5 L 428.9 -46.5 Q 430.1 -45.8 430.7 -44.9 L 430.7 -44.9 L 430.7 -44.9 Q 429.2 -43.6 429.2 -41.5 L 429.2 -41.5 L 429.2 -41.5 Q 429.2 -38.7 431.8 -38.7 L 431.8 -38.7 L 431.8 -38.7 Q 436 -38.7 438.4 -48.4 L 438.4 -48.4 L 438.4 -48.4 Q 439.1 -51.3 439.8 -54.3 Z" fill="url(#editing-gradient-gradient)"></path></g></g><style>text {
  font-size: 64px;
  font-family: Arial Black;
  dominant-baseline: central;
  text-anchor: middle;
}</style></svg>